<svg width="19" height="13" fill="none" xmlns="http://www.w3.org/2000/svg"><path d="M17.757.099H3.47c-.686 0-1.243.557-1.243 1.243v2.653H.278a.278.278 0 100 .557h3.34a.278.278 0 100-.557h-.835V1.342c0-.087.017-.17.047-.247L8.234 6.5 2.83 11.905a.682.682 0 01-.047-.247V9.84a.278.278 0 10-.556 0v1.818c0 .686.557 1.243 1.243 1.243h14.287c.685 0 1.243-.557 1.243-1.243V1.342c0-.686-.558-1.243-1.243-1.243zM12.992 6.5l5.405-5.405c.03.077.046.16.046.247v10.316a.7.7 0 01-.046.247L12.992 6.5zM17.757.655c.087 0 .17.017.246.047L11.794 6.91a1.672 1.672 0 01-2.362 0L3.223.7A.682.682 0 013.47.656h14.287zM3.47 12.345a.682.682 0 01-.247-.047l5.405-5.404.41.41a2.22 2.22 0 001.575.652c.57 0 1.14-.217 1.575-.651l.41-.411 5.405 5.404a.682.682 0 01-.246.047H3.47z" fill="#fff"/><path d="M2.505 5.108a.278.278 0 00-.278.279v.835H.278a.278.278 0 100 .556h4.453a.278.278 0 100-.556H2.783v-.835a.278.278 0 00-.278-.279zm1.113 3.897a.278.278 0 100-.557h-.835v-.835a.278.278 0 10-.556 0v.835H.278a.278.278 0 100 .557h3.34z" fill="#fff"/></svg>