<svg width="18" height="11" fill="none" xmlns="http://www.w3.org/2000/svg"><path d="M14.354 6.23c-.276-.348-.197-.503 0-.814.003-.003 2.279-3.148 2.513-4.214h.002c.116-.39 0-.675-.564-.675h-1.864c-.475 0-.693.245-.81.52 0 0-.95 2.271-2.293 3.744-.433.425-.633.562-.87.562-.116 0-.297-.136-.297-.525V1.2c0-.466-.133-.674-.526-.674H6.713c-.297 0-.474.217-.474.42 0 .442.671.543.74 1.786V5.43c0 .591-.106.7-.344.7C6 6.13 4.463 3.85 3.55 1.239 3.367.732 3.188.528 2.71.528H.844c-.532 0-.639.245-.639.519 0 .484.634 2.894 2.947 6.076 1.542 2.173 3.713 3.35 5.688 3.35 1.187 0 1.332-.261 1.332-.711 0-2.076-.107-2.272.487-2.272.276 0 .75.136 1.859 1.184 1.266 1.243 1.475 1.8 2.184 1.8h1.864c.531 0 .8-.262.646-.778-.355-1.085-2.75-3.316-2.858-3.466z" fill="#fff"/></svg>