<svg width="16" height="11" fill="none" xmlns="http://www.w3.org/2000/svg"><path d="M15.061 1.18c-.422-.751-.88-.89-1.813-.942C12.315.175 9.97.148 7.94.148c-2.035 0-4.38.027-5.31.089-.932.054-1.391.19-1.817.943-.435.75-.66 2.042-.66 4.317v.008c0 2.265.225 3.567.66 4.31.426.75.884.887 1.815.95.932.054 3.277.086 5.312.086 2.03 0 4.374-.032 5.308-.085.933-.063 1.39-.2 1.813-.95.439-.743.66-2.045.66-4.31v-.009c0-2.276-.221-3.568-.66-4.318zM5.993 8.419V2.581L10.858 5.5 5.993 8.419z" fill="#fff"/></svg>