<svg width="16" height="16" fill="none" xmlns="http://www.w3.org/2000/svg"><g clip-path="url(#clip0)"><path d="M14.468.796H1.998C1.347.796.82 1.323.82 1.974v11.793c0 .65.526 1.178 1.179 1.178h12.469a1.18 1.18 0 001.178-1.178V1.975A1.18 1.18 0 0014.468.796zm-3.682 4.2c-.307-.179-.55-.32-.855-.32-.3 0-.556.074-.687.2-.13.125-.195.367-.195.725v.527h1.6l-.346 1.47H9.049v4.885H7.04V7.598h-.938v-1.47h.938v-.56c0-.591.07-.944.21-1.237.14-.29.41-.614.786-.797.374-.183.929-.275 1.503-.275.588 0 1.048.196 1.611.354l-.364 1.384z" fill="#fff"/></g><defs><clipPath id="clip0"><path fill="#fff" transform="translate(.82 .457)" d="M0 0h14.827v14.827H0z"/></clipPath></defs></svg>