<svg width="15" height="16" fill="none" xmlns="http://www.w3.org/2000/svg"><g clip-path="url(#clip0)"><path d="M14.29 1.276a1.83 1.83 0 00-1.342-.56H1.924a1.83 1.83 0 00-1.341.56 1.83 1.83 0 00-.56 1.342V13.64c0 .521.186.969.56 1.342.373.373.82.56 1.341.56h11.024a1.83 1.83 0 001.341-.56c.374-.373.56-.82.56-1.342V2.618a1.83 1.83 0 00-.56-1.342zM5.346 6.059a2.913 2.913 0 012.1-.845c.823 0 1.526.282 2.109.845.582.563.873 1.243.873 2.041 0 .798-.29 1.479-.873 2.042a2.923 2.923 0 01-2.11.845 2.913 2.913 0 01-2.099-.845c-.582-.563-.873-1.244-.873-2.042 0-.798.29-1.478.873-2.041zm7.824 7.186a.563.563 0 01-.174.42.575.575 0 01-.415.17H2.262a.57.57 0 01-.42-.17.57.57 0 01-.169-.42V6.99h1.361a4.156 4.156 0 00-.193 1.265c0 1.236.45 2.29 1.352 3.161.9.872 1.985 1.308 3.253 1.308.836 0 1.609-.2 2.317-.598a4.507 4.507 0 001.68-1.627 4.277 4.277 0 00.617-2.244c0-.438-.065-.86-.193-1.265h1.303v6.255zm0-8.62a.642.642 0 01-.193.473.642.642 0 01-.473.193h-1.68a.643.643 0 01-.473-.193.643.643 0 01-.193-.473V3.033c0-.18.065-.337.193-.469a.635.635 0 01.473-.197h1.68c.187 0 .344.066.473.197a.648.648 0 01.193.469v1.592z" fill="#fff"/></g><defs><clipPath id="clip0"><path fill="#fff" transform="translate(.023 .716)" d="M0 0h14.827v14.827H0z"/></clipPath></defs></svg>